{
	"asset":{
		"version":"2.0",
		"generator":"Houdini GLTF 2.0 Exporter"
	},
	"accessors":[
		{
			"bufferView":0,
			"componentType":5125,
			"count":203478,
			"type":"SCALAR",
			"min":[0
			],
			"max":[40020
			]
		},
		{
			"bufferView":1,
			"componentType":5126,
			"count":40021,
			"type":"VEC3",
			"min":[-0.23406978,0.0245379396,-0.491327018
			],
			"max":[0.23407796,1.65007973,0.953117907
			]
		},
		{
			"bufferView":2,
			"componentType":5126,
			"count":40021,
			"type":"VEC3",
			"min":[0.0268634409,0.0166483335,0.00997500122
			],
			"max":[1.41233444,1.33890831,1.23847449
			]
		},
		{
			"bufferView":3,
			"componentType":5126,
			"count":40021,
			"type":"VEC2",
			"min":[0.001953125,0.00727665424
			],
			"max":[0.996936321,0.998046875
			]
		},
		{
			"bufferView":4,
			"componentType":5123,
			"count":10224,
			"type":"SCALAR",
			"min":[0
			],
			"max":[2317
			]
		},
		{
			"bufferView":5,
			"componentType":5126,
			"count":2318,
			"type":"VEC3",
			"min":[-0.0449769571,1.30769742,0.823987544
			],
			"max":[0.0448822267,1.33111906,0.836705804
			]
		},
		{
			"bufferView":6,
			"componentType":5126,
			"count":2318,
			"type":"VEC3",
			"min":[0,0,0
			],
			"max":[0,0,0
			]
		},
		{
			"bufferView":7,
			"componentType":5126,
			"count":2318,
			"type":"VEC2",
			"min":[0,-5.04152441
			],
			"max":[2.74680138,1
			]
		},
		{
			"bufferView":8,
			"componentType":5125,
			"count":60672,
			"type":"SCALAR",
			"min":[0
			],
			"max":[11325
			]
		},
		{
			"bufferView":9,
			"componentType":5126,
			"count":11326,
			"type":"VEC3",
			"min":[-0.17833522,-0.000565228518,-0.245187327
			],
			"max":[0.17833522,1.04342651,0.932139814
			]
		},
		{
			"bufferView":10,
			"componentType":5126,
			"count":11326,
			"type":"VEC3",
			"min":[0.0500000007,0.0500000007,0.0500000007
			],
			"max":[1,1,1
			]
		},
		{
			"bufferView":11,
			"componentType":5126,
			"count":11326,
			"type":"VEC2",
			"min":[0.00365094445,0.0985848308
			],
			"max":[0.950868905,0.974343419
			]
		},
		{
			"bufferView":12,
			"componentType":5123,
			"count":7800,
			"type":"SCALAR",
			"min":[0
			],
			"max":[1303
			]
		},
		{
			"bufferView":13,
			"componentType":5126,
			"count":1304,
			"type":"VEC3",
			"min":[-0.0523046628,1.30198073,0.783725321
			],
			"max":[0.0523046628,1.35179853,0.833425581
			]
		},
		{
			"bufferView":14,
			"componentType":5126,
			"count":1304,
			"type":"VEC3",
			"min":[1,1,1
			],
			"max":[1,1,1
			]
		},
		{
			"bufferView":15,
			"componentType":5126,
			"count":1304,
			"type":"VEC2",
			"min":[0,-5.04152441
			],
			"max":[2.74680138,1
			]
		}
	],
	"buffers":[
		{
			"uri":"zebra_data.bin",
			"byteLength":2851656,
			"name":"main_buffer"
		}
	],
	"bufferViews":[
		{
			"buffer":0,
			"byteLength":813912,
			"target":34963
		},
		{
			"buffer":0,
			"byteOffset":813912,
			"byteLength":480252,
			"target":34962
		},
		{
			"buffer":0,
			"byteOffset":1294164,
			"byteLength":480252,
			"target":34962
		},
		{
			"buffer":0,
			"byteOffset":1774416,
			"byteLength":320168,
			"target":34962
		},
		{
			"buffer":0,
			"byteOffset":2094584,
			"byteLength":20448,
			"target":34963
		},
		{
			"buffer":0,
			"byteOffset":2115032,
			"byteLength":27816,
			"target":34962
		},
		{
			"buffer":0,
			"byteOffset":2142848,
			"byteLength":27816,
			"target":34962
		},
		{
			"buffer":0,
			"byteOffset":2170664,
			"byteLength":18544,
			"target":34962
		},
		{
			"buffer":0,
			"byteOffset":2189208,
			"byteLength":242688,
			"target":34963
		},
		{
			"buffer":0,
			"byteOffset":2431896,
			"byteLength":135912,
			"target":34962
		},
		{
			"buffer":0,
			"byteOffset":2567808,
			"byteLength":135912,
			"target":34962
		},
		{
			"buffer":0,
			"byteOffset":2703720,
			"byteLength":90608,
			"target":34962
		},
		{
			"buffer":0,
			"byteOffset":2794328,
			"byteLength":15600,
			"target":34963
		},
		{
			"buffer":0,
			"byteOffset":2809928,
			"byteLength":15648,
			"target":34962
		},
		{
			"buffer":0,
			"byteOffset":2825576,
			"byteLength":15648,
			"target":34962
		},
		{
			"buffer":0,
			"byteOffset":2841224,
			"byteLength":10432,
			"target":34962
		}
	],
	"nodes":[
		{
			"name":"zebra_03",
			"mesh":0
		}
	],
	"meshes":[
		{
			"primitives":[
				{
					"attributes":{
						"TEXCOORD_0":3,
						"COLOR_0":2,
						"POSITION":1
					},
					"indices":0,
					"material":0
				},
				{
					"attributes":{
						"TEXCOORD_0":7,
						"COLOR_0":6,
						"POSITION":5
					},
					"indices":4,
					"material":1
				},
				{
					"attributes":{
						"TEXCOORD_0":11,
						"COLOR_0":10,
						"POSITION":9
					},
					"indices":8,
					"material":2
				},
				{
					"attributes":{
						"TEXCOORD_0":15,
						"COLOR_0":14,
						"POSITION":13
					},
					"indices":12,
					"material":3
				}
			],
			"name":"OUT"
		}
	],
	"materials":[
		{
			"name":"bodymat",
			"pbrMetallicRoughness":{
				"metallicFactor":0,
				"roughnessFactor":0.8,
				"baseColorTexture":{
					"index":0
				}
			}
		},
		{
			"name":"pupilmat",
			"pbrMetallicRoughness":{
				"metallicFactor":0,
				"roughnessFactor":0.300000012
			}
		},
		{
			"name":"tand_en_hoefmat",
			"pbrMetallicRoughness":{
				"metallicFactor":0,
				"roughnessFactor":0.300000012
			}
		},
		{
			"name":"oogwitMat",
			"pbrMetallicRoughness":{
				"metallicFactor":0,
				"roughnessFactor":0.300000012
			}
		}
	],
	"scenes":[
		{
			"nodes":[0
			]
		}
	],
	"textures":[
		{
			"source":0
		}
	],
	"images":[
		{
			"uri":"default_Colour.png",
			"mimeType":"image/png"
		}
	],
	"scene":0
}
